<svg width="51" height="26" viewBox="0 0 51 26" fill="none" xmlns="http://www.w3.org/2000/svg">
<path d="M42.8881 25.2282C43.6029 25.2282 44.2016 24.986 44.6843 24.5017C45.167 24.0173 45.4092 23.4185 45.4109 22.7054V17.6598H47.9337C48.6485 17.6598 49.2473 17.4176 49.73 16.9332C50.2127 16.4488 50.4549 15.8501 50.4565 15.1369V10.0913C50.4565 9.3765 50.2144 8.77775 49.73 8.29505C49.2456 7.81235 48.6468 7.57015 47.9337 7.56847H45.4109V2.52282C45.4109 1.80802 45.1687 1.20927 44.6843 0.726574C44.1999 0.243873 43.6012 0.00168188 42.8881 0H2.52288C1.80808 0 1.20849 0.242191 0.724113 0.726574C0.23973 1.21096 -0.00162165 1.80971 6.02279e-05 2.52282V22.7054C6.02279e-05 23.4202 0.242252 24.0198 0.726634 24.5042C1.21102 24.9886 1.80977 25.2299 2.52288 25.2282H42.8881ZM40.3652 20.1826H12.6142V5.04565H40.3652V20.1826Z" fill="#1A2126"/>
</svg>
