<svg width="62" height="62" viewBox="0 0 62 62" fill="none" xmlns="http://www.w3.org/2000/svg">
<path d="M51.0831 46.7096C51.8942 46.7096 52.5735 46.4347 53.1213 45.8851C53.669 45.3355 53.9438 44.6561 53.9457 43.8469V38.1217H56.8083C57.6194 38.1217 58.2988 37.8469 58.8465 37.2973C59.3942 36.7477 59.669 36.0683 59.6709 35.2591V29.5339C59.6709 28.7228 59.3961 28.0435 58.8465 27.4957C58.2968 26.948 57.6175 26.6732 56.8083 26.6713H53.9457V20.9461C53.9457 20.135 53.6709 19.4556 53.1213 18.9079C52.5716 18.3602 51.8922 18.0854 51.0831 18.0835H5.28139C4.47031 18.0835 3.78997 18.3583 3.24035 18.9079C2.69073 19.4575 2.41687 20.1369 2.41878 20.9461V43.8469C2.41878 44.658 2.69359 45.3384 3.24321 45.888C3.79284 46.4376 4.47223 46.7115 5.28139 46.7096H51.0831ZM48.2205 40.9843H16.7318V23.8087H48.2205V40.9843Z" fill="white" fill-opacity="0.9"/>
</svg>
