<svg width="47" height="37" viewBox="0 0 47 37" fill="none" xmlns="http://www.w3.org/2000/svg">
<path d="M41.7411 6.67857H35.5843C35.2712 6.67857 34.883 6.47613 34.5804 6.15681L31.8735 1.88461C31.8307 1.8168 31.7829 1.75228 31.7305 1.69156C30.7955 0.601071 29.5318 0 28.1752 0H18.5748C17.2182 0 15.9545 0.601071 15.0195 1.69156C14.9671 1.75228 14.9193 1.8168 14.8765 1.88461L12.1696 6.16307C11.9379 6.4156 11.6124 6.68483 11.2701 6.68483V5.85001C11.2701 5.40719 11.0942 4.98251 10.7811 4.6694C10.4679 4.35628 10.0433 4.18037 9.60045 4.18037H7.09598C6.65317 4.18037 6.22849 4.35628 5.91537 4.6694C5.60225 4.98251 5.42634 5.40719 5.42634 5.85001V6.68483H5.00893C3.6809 6.68621 2.40766 7.21438 1.46861 8.15344C0.52955 9.0925 0.0013812 10.3657 0 11.6938V31.7232C0.0013812 33.0512 0.52955 34.3245 1.46861 35.2635C2.40766 36.2026 3.6809 36.7308 5.00893 36.7321H41.7411C43.0691 36.7308 44.3423 36.2026 45.2814 35.2635C46.2205 34.3245 46.7486 33.0512 46.75 31.7232V11.6875C46.7486 10.3595 46.2205 9.08624 45.2814 8.14718C44.3423 7.20812 43.0691 6.67995 41.7411 6.67857ZM23.375 30.0536C21.3937 30.0536 19.4568 29.466 17.8094 28.3653C16.1619 27.2645 14.8779 25.6999 14.1197 23.8694C13.3615 22.0389 13.1631 20.0246 13.5496 18.0813C13.9362 16.1381 14.8903 14.353 16.2913 12.952C17.6923 11.551 19.4773 10.5969 21.4206 10.2103C23.3639 9.82381 25.3781 10.0222 27.2087 10.7804C29.0392 11.5387 30.6038 12.8227 31.7045 14.4701C32.8053 16.1175 33.3929 18.0544 33.3929 20.0357C33.3898 22.6917 32.3334 25.238 30.4553 27.1161C28.5773 28.9941 26.031 30.0505 23.375 30.0536Z" fill="#F3FFFD"/>
</svg>
