<svg width="39" height="39" viewBox="0 0 39 39" fill="none" xmlns="http://www.w3.org/2000/svg">
<path d="M19.25 0C15.4427 0 11.7209 1.12899 8.55528 3.24421C5.38963 5.35943 2.92231 8.36587 1.46533 11.8833C0.0083407 15.4008 -0.372873 19.2714 0.369892 23.0055C1.11266 26.7396 2.94604 30.1696 5.6382 32.8618C8.33036 35.554 11.7604 37.3873 15.4945 38.1301C19.2287 38.8729 23.0992 38.4917 26.6167 37.0347C30.1341 35.5777 33.1406 33.1104 35.2558 29.9447C37.371 26.7791 38.5 23.0573 38.5 19.25C38.5 14.1446 36.4719 9.24827 32.8618 5.63819C29.2517 2.02812 24.3554 0 19.25 0ZM16.5 26.9362L9.62501 20.0612L11.8113 17.875L16.5 22.5637L26.6888 12.375L28.8833 14.5557L16.5 26.9362Z" fill="#015F70"/>
</svg>
