<svg width="39" height="39" viewBox="0 0 39 39" fill="none" xmlns="http://www.w3.org/2000/svg">
<path d="M9.75049 32.5C9.29008 32.5 8.90441 32.344 8.59349 32.032C8.28258 31.72 8.12658 31.3343 8.12549 30.875C8.12441 30.4157 8.28041 30.03 8.59349 29.718C8.90658 29.406 9.29224 29.25 9.75049 29.25H10.7255L13.9349 18.5656C14.1515 17.8615 14.5513 17.2998 15.1341 16.8805C15.717 16.4613 16.3599 16.2511 17.063 16.25H21.938C22.6422 16.25 23.2857 16.4602 23.8685 16.8805C24.4513 17.3008 24.8505 17.8625 25.0661 18.5656L28.2755 29.25H29.2505C29.7109 29.25 30.0971 29.406 30.4091 29.718C30.7211 30.03 30.8766 30.4157 30.8755 30.875C30.8744 31.3343 30.7184 31.7205 30.4075 32.0336C30.0966 32.3467 29.7109 32.5022 29.2505 32.5H9.75049ZM17.8755 11.375V6.50001C17.8755 6.03959 18.0315 5.65392 18.3435 5.34301C18.6555 5.03209 19.0412 4.87609 19.5005 4.87501C19.9598 4.87392 20.346 5.02992 20.6591 5.34301C20.9722 5.65609 21.1277 6.04176 21.1255 6.50001V11.375C21.1255 11.8354 20.9695 12.2216 20.6575 12.5336C20.3455 12.8456 19.9598 13.0011 19.5005 13C19.0412 12.9989 18.6555 12.8429 18.3435 12.532C18.0315 12.2211 17.8755 11.8354 17.8755 11.375ZM26.4067 13.5688L29.8599 10.1156C30.1578 9.81771 30.5305 9.66171 30.9779 9.64763C31.4253 9.63355 31.811 9.78955 32.1349 10.1156C32.4328 10.4135 32.5817 10.7927 32.5817 11.2531C32.5817 11.7135 32.4328 12.0927 32.1349 12.3906L28.6817 15.8844C28.3567 16.2094 27.9776 16.3719 27.5442 16.3719C27.1109 16.3719 26.7317 16.2094 26.4067 15.8844C26.0817 15.5594 25.9192 15.1737 25.9192 14.7274C25.9192 14.281 26.0817 13.8948 26.4067 13.5688ZM30.8755 21.125H35.7505C36.2109 21.125 36.5971 21.281 36.9091 21.593C37.2211 21.905 37.3766 22.2907 37.3755 22.75C37.3744 23.2093 37.2184 23.5955 36.9075 23.9086C36.5966 24.2217 36.2109 24.3772 35.7505 24.375H30.8755C30.4151 24.375 30.0294 24.219 29.7185 23.907C29.4076 23.595 29.2516 23.2093 29.2505 22.75C29.2494 22.2907 29.4054 21.905 29.7185 21.593C30.0316 21.281 30.4172 21.125 30.8755 21.125ZM10.3192 15.8438L6.86612 12.3906C6.5682 12.0927 6.41274 11.7206 6.39974 11.2743C6.38674 10.8279 6.5422 10.4417 6.86612 10.1156C7.16404 9.81771 7.5432 9.66875 8.00362 9.66875C8.46404 9.66875 8.8432 9.81771 9.14112 10.1156L12.6349 13.5688C12.9599 13.8938 13.1224 14.2729 13.1224 14.7063C13.1224 15.1396 12.9599 15.5188 12.6349 15.8438C12.3099 16.1688 11.9242 16.3313 11.4779 16.3313C11.0315 16.3313 10.6453 16.1688 10.3192 15.8438ZM3.25049 24.375C2.79008 24.375 2.40441 24.219 2.09349 23.907C1.78258 23.595 1.62658 23.2093 1.62549 22.75C1.62441 22.2907 1.78041 21.905 2.09349 21.593C2.40658 21.281 2.79224 21.125 3.25049 21.125H8.12549C8.58591 21.125 8.97212 21.281 9.28412 21.593C9.59612 21.905 9.75158 22.2907 9.75049 22.75C9.74941 23.2093 9.59341 23.5955 9.28249 23.9086C8.97158 24.2217 8.58591 24.3772 8.12549 24.375H3.25049Z" fill="#C7191C"/>
</svg>
