<svg width="30" height="30" viewBox="0 0 30 30" fill="none" xmlns="http://www.w3.org/2000/svg">
<path d="M14.8856 14.8855C15.5678 14.8855 16.1519 14.6426 16.6377 14.1568C17.1236 13.6709 17.3665 13.0869 17.3665 12.4046C17.3665 11.7224 17.1236 11.1383 16.6377 10.6525C16.1519 10.1666 15.5678 9.9237 14.8856 9.9237C14.2033 9.9237 13.6193 10.1666 13.1334 10.6525C12.6476 11.1383 12.4047 11.7224 12.4047 12.4046C12.4047 13.0869 12.6476 13.6709 13.1334 14.1568C13.6193 14.6426 14.2033 14.8855 14.8856 14.8855ZM14.8856 27.2901C11.557 24.4577 9.07093 21.8269 7.42732 19.3977C5.78372 16.9685 4.96191 14.7201 4.96191 12.6527C4.96191 9.55157 5.95945 7.08099 7.95452 5.24098C9.94959 3.40096 12.2599 2.48096 14.8856 2.48096C17.5112 2.48096 19.8216 3.40096 21.8166 5.24098C23.8117 7.08099 24.8092 9.55157 24.8092 12.6527C24.8092 14.7201 23.9874 16.9685 22.3438 19.3977C20.7002 21.8269 18.2141 24.4577 14.8856 27.2901Z" fill="#015F70"/>
</svg>
