<svg width="70" height="33" viewBox="0 0 70 33" fill="none" xmlns="http://www.w3.org/2000/svg">
<path d="M1.38583 24.3127V13.35C1.38583 13.1472 1.44967 12.982 1.57737 12.8543C1.71257 12.7191 1.87782 12.6515 2.07311 12.6515H4.59689C4.79219 12.6515 4.95368 12.7191 5.08137 12.8543C5.21657 12.982 5.28417 13.1472 5.28417 13.35V14.0598C6.57611 12.9707 7.95067 12.4261 9.40786 12.4261C10.8726 12.4261 12.0631 12.8731 12.9795 13.7669C13.8958 14.6532 14.354 16.0128 14.354 17.8455V24.3127C14.354 24.508 14.2864 24.6733 14.1512 24.8085C14.0235 24.9362 13.8583 25 13.6555 25H11.143C10.9477 25 10.7824 24.9362 10.6472 24.8085C10.5195 24.6733 10.4557 24.508 10.4557 24.3127V17.8455C10.4557 16.0503 9.73836 15.1527 8.3037 15.1527C7.3648 15.1527 6.35829 15.6898 5.28417 16.7639V24.3127C5.28417 24.508 5.21657 24.6733 5.08137 24.8085C4.95368 24.9362 4.79219 25 4.59689 25H2.07311C1.87782 25 1.71257 24.9362 1.57737 24.8085C1.44967 24.6733 1.38583 24.508 1.38583 24.3127ZM21.0061 24.1888C20.0146 23.4977 19.5189 22.5213 19.5189 21.2594C19.5189 19.9975 20.0146 19.0285 21.0061 18.3525C22.0051 17.6765 23.2895 17.3385 24.8594 17.3385H28.5887C28.5887 16.4597 28.4047 15.8475 28.0366 15.502C27.6686 15.1565 27.0226 14.9837 26.0987 14.9837C25.1824 14.9837 24.5364 15.2128 24.1608 15.671C23.7928 16.1217 23.3383 16.347 22.7975 16.347H21.1188C20.916 16.347 20.747 16.2832 20.6118 16.1555C20.4841 16.0203 20.4202 15.855 20.4202 15.6597C20.4202 13.504 22.467 12.4261 26.5607 12.4261C28.3484 12.4261 29.783 12.828 30.8646 13.6317C31.9463 14.4279 32.4871 15.6635 32.4871 17.3385V24.3127C32.4871 24.5155 32.4232 24.6808 32.2955 24.8085C32.1678 24.9362 32.0026 25 31.7998 25H29.6253C29.4225 25 29.2572 24.9362 29.1295 24.8085C29.0018 24.6733 28.938 24.508 28.938 24.3127V23.9634C27.7512 24.8122 26.3804 25.2328 24.8256 25.2253C23.2783 25.2253 22.0051 24.8798 21.0061 24.1888ZM25.1298 19.8961C24.604 19.8961 24.1871 20.0238 23.8792 20.2792C23.5787 20.5346 23.4285 20.865 23.4285 21.2707C23.4285 21.6763 23.5862 22.0105 23.9017 22.2734C24.2172 22.5363 24.6641 22.6678 25.2424 22.6678C26.3992 22.6678 27.5146 22.3297 28.5887 21.6537V19.8961H25.1298ZM37.5505 12.6515H39.7137C40.0367 12.6515 40.3409 12.7454 40.6264 12.9332C40.9118 13.1134 41.1146 13.35 41.2348 13.643L44.3106 20.6622L47.3752 13.643C47.4954 13.35 47.6982 13.1134 47.9836 12.9332C48.2691 12.7454 48.5733 12.6515 48.8963 12.6515H51.0708C51.3337 12.6515 51.5064 12.7491 51.5891 12.9444C51.6266 13.0195 51.6416 13.1172 51.6341 13.2374C51.6341 13.35 51.6003 13.4852 51.5327 13.643L46.6654 24.0085C46.5302 24.3015 46.3161 24.5418 46.0232 24.7296C45.7378 24.9099 45.4411 25 45.1331 25H43.4769C43.1689 25 42.8722 24.9099 42.5868 24.7296C42.3014 24.5418 42.0911 24.3015 41.9559 24.0085L37.0886 13.643C37.0134 13.4777 36.9759 13.3388 36.9759 13.2261C36.9759 12.843 37.1674 12.6515 37.5505 12.6515Z" fill="#30807F"/>
<g clip-path="url(#clip0_135_1043)">
<path d="M67.2336 16.0632C67.0295 16.2425 65.5953 16.6286 65.5981 16.7141L68.9133 23.9624C69.1008 24.4782 68.9133 24.925 68.3479 24.9884C67.7521 25.0546 66.1552 25.0601 65.565 24.9884C65.0216 24.9222 64.7486 24.332 64.5555 23.8824C64.0121 22.6109 63.6812 21.1519 63.1626 19.8611C62.851 19.3508 62.2497 19.3288 61.9436 19.8611C61.3588 21.1877 61.0472 22.7516 60.4652 24.0617C60.2942 24.4451 59.9908 24.9333 59.5412 24.9884C58.9483 25.0601 57.3568 25.0546 56.7583 24.9884C56.1598 24.9222 55.9971 24.434 56.2095 23.9155L59.5054 16.772C59.5219 16.6451 59.4888 16.692 59.4226 16.6589C58.7607 16.328 57.5609 16.3583 57.583 15.3268C57.5885 15.0758 57.9664 13.9643 58.1015 13.7271C58.6173 12.8252 59.5743 13.6443 60.2473 13.8567C61.5491 14.2704 63.2868 14.2897 64.6024 13.9367C65.2505 13.7629 66.2241 13.021 66.784 13.4761C67.0433 13.6885 67.5177 15.1006 67.4984 15.4371C67.4901 15.586 67.3412 15.9611 67.2309 16.0604L67.2336 16.0632Z" fill="#30807F"/>
<path d="M62.338 6.54047C64.7348 6.23157 65.1044 9.78952 62.9117 10.0791C60.3991 10.4129 60.0874 6.83283 62.338 6.54047Z" fill="#30807F"/>
</g>
<defs>
<clipPath id="clip0_135_1043">
<rect width="13.0403" height="20.057" fill="white" transform="translate(56 5)"/>
</clipPath>
</defs>
</svg>
