<svg width="46" height="41" viewBox="0 0 46 41" fill="none" xmlns="http://www.w3.org/2000/svg">
<path d="M22.7627 0C23.3665 0 23.9456 0.239866 24.3726 0.66683C24.7995 1.09379 25.0394 1.67288 25.0394 2.2767V13.6602C25.0394 14.4595 25.2498 15.2447 25.6495 15.9368C26.0491 16.629 26.6239 17.2038 27.3161 17.6034V9.69191C27.3161 6.86425 29.5814 4.5534 32.4 4.5534C33.2469 4.5534 34.0802 4.76741 34.9544 5.25235L35.3642 5.51872C39.2233 8.31906 41.6479 12.4285 43.9542 19.953C44.9772 23.2982 45.5024 27.1383 45.5297 31.4731C45.5661 36.4705 41.7572 40.6346 36.7804 40.9624L36.2408 40.9806C31.3003 40.9806 27.3161 36.9121 27.3161 31.9193V22.4801C25.6715 22.0547 24.1787 21.1778 23.0063 19.9485L22.7627 19.6798L22.5191 19.9485C21.3474 21.1774 19.8554 22.0543 18.2116 22.4801L18.2093 31.9193C18.2093 36.9121 14.2251 40.9806 9.28692 40.9806L8.67677 40.9578C3.77048 40.6345 -0.036168 36.4705 0.000259254 31.4754C0.0275797 27.1375 0.552738 23.2975 1.57574 19.9553C3.87748 12.4262 6.30217 8.31679 10.2773 5.44131L10.7053 5.17494C11.4472 4.76626 12.2807 4.55242 13.1277 4.5534C15.944 4.5534 18.2093 6.86425 18.2093 9.69191L18.2116 17.6034C18.9033 17.2035 19.4777 16.6286 19.8769 15.9364C20.2762 15.2443 20.4862 14.4592 20.486 13.6602V2.2767C20.486 1.67288 20.7259 1.09379 21.1528 0.66683C21.5798 0.239866 22.1589 0 22.7627 0Z" fill="#1A2126"/>
</svg>
