<svg width="52" height="47" viewBox="0 0 52 47" fill="none" color="#000000" xmlns="http://www.w3.org/2000/svg">
<path d="M25.8285 0C26.5136 0 27.1707 0.272172 27.6552 0.756641C28.1396 1.24111 28.4118 1.89819 28.4118 2.58333V15.5C28.4118 16.4069 28.6506 17.2979 29.104 18.0833C29.5575 18.8687 30.2097 19.5209 30.9951 19.9743V10.9972C30.9951 7.78875 33.5655 5.16667 36.7637 5.16667C37.7247 5.16667 38.6702 5.4095 39.6622 5.95975L40.1272 6.262C44.506 9.4395 47.2572 14.1024 49.8741 22.6403C51.0349 26.4361 51.6308 30.7933 51.6618 35.712C51.7031 41.3824 47.3812 46.1073 41.734 46.4793L41.1218 46.5C35.516 46.5 30.9951 41.8836 30.9951 36.2183V25.5078C29.129 25.0251 27.4351 24.0301 26.1049 22.6352L25.8285 22.3303L25.552 22.6352C24.2225 24.0297 22.5296 25.0247 20.6644 25.5078L20.6618 36.2183C20.6618 41.8836 16.141 46.5 10.5377 46.5L9.84538 46.4742C4.27829 46.1073 -0.0410392 41.3824 0.000294171 35.7146C0.0312942 30.7925 0.627183 26.4352 1.78796 22.6429C4.39971 14.0998 7.15096 9.43692 11.6615 6.17417L12.1471 5.87192C12.989 5.4082 13.9347 5.16555 14.8958 5.16667C18.0914 5.16667 20.6618 7.78875 20.6618 10.9972L20.6644 19.9743C21.4493 19.5205 22.101 18.8682 22.554 18.0828C23.007 17.2974 23.2454 16.4067 23.2451 15.5V2.58333C23.2451 1.89819 23.5173 1.24111 24.0018 0.756641C24.4862 0.272172 25.1433 0 25.8285 0Z" fill="white" fill-opacity="0.9"/>
</svg>
