<svg width="48" height="48" viewBox="0 0 48 48" fill="none" xmlns="http://www.w3.org/2000/svg">
<mask id="mask0_87_940" style="mask-type:luminance" maskUnits="userSpaceOnUse" x="0" y="0" width="48" height="48">
<path d="M0 0H47.6336V47.6336H0V0Z" fill="white"/>
<path fill-rule="evenodd" clip-rule="evenodd" d="M19.2373 13.7413C19.2373 12.5266 19.7199 11.3616 20.5788 10.5026C21.4377 9.64368 22.6027 9.16113 23.8175 9.16113C25.0322 9.16113 26.1972 9.64368 27.0561 10.5026C27.9151 11.3616 28.3976 12.5266 28.3976 13.7413V21.0695C28.3976 22.2843 27.9151 23.4492 27.0561 24.3082C26.1972 25.1671 25.0322 25.6497 23.8175 25.6497C22.6027 25.6497 21.4377 25.1671 20.5788 24.3082C19.7199 23.4492 19.2373 22.2843 19.2373 21.0695V13.7413Z" fill="black"/>
<path d="M23.8165 39.3897C18.6245 39.3897 15.5723 39.0086 15.5723 37.5576C15.5723 36.1067 18.6245 35.7256 23.8165 35.7256C29.0086 35.7256 32.0608 36.1067 32.0608 37.5576C32.0608 39.0086 29.0086 39.3897 23.8165 39.3897Z" fill="black"/>
<path d="M22.0508 30.229H25.7149V38.4733H22.0508V30.229Z" fill="black"/>
<path d="M31.1448 20.1529C31.1448 19.667 31.3378 19.201 31.6814 18.8574C32.025 18.5138 32.491 18.3208 32.9769 18.3208C33.4628 18.3208 33.9288 18.5138 34.2724 18.8574C34.6159 19.201 34.809 19.667 34.809 20.1529V23.4506C34.809 28.7892 29.8239 32.9773 23.8166 32.9773C17.8093 32.9773 12.8242 28.7892 12.8242 23.4506V20.1529C12.8242 19.667 13.0172 19.201 13.3608 18.8574C13.7044 18.5138 14.1704 18.3208 14.6563 18.3208C15.1422 18.3208 15.6082 18.5138 15.9517 18.8574C16.2953 19.201 16.4883 19.667 16.4883 20.1529V23.4506C16.4883 26.6109 19.7054 29.3132 23.8166 29.3132C27.9277 29.3132 31.1448 26.6109 31.1448 23.4506V20.1529Z" fill="black"/>
</mask>
<g mask="url(#mask0_87_940)">
<path d="M23.8168 47.6336C36.9704 47.6336 47.6336 36.9704 47.6336 23.8168C47.6336 10.6631 36.9704 0 23.8168 0C10.6631 0 0 10.6631 0 23.8168C0 36.9704 10.6631 47.6336 23.8168 47.6336Z" fill="#1A2126"/>
</g>
</svg>
