<svg width="30" height="31" viewBox="0 0 30 31" fill="none" xmlns="http://www.w3.org/2000/svg">
<path d="M26.5366 15.4074C26.5366 15.053 26.5212 14.7141 26.4904 14.3597L29.3562 12.1873C29.9725 11.725 30.142 10.8622 29.7568 10.1843L26.8756 5.2077C26.6909 4.88135 26.392 4.63477 26.0366 4.51532C25.6811 4.39588 25.294 4.412 24.9497 4.56059L21.6371 5.96267C21.067 5.56207 20.4661 5.2077 19.8344 4.91496L19.3876 1.35585C19.2952 0.585482 18.6326 0 17.8623 0H12.1153C11.3295 0 10.667 0.585482 10.5746 1.35585L10.1278 4.91496C9.49605 5.2077 8.89516 5.56207 8.32508 5.96267L5.01249 4.56059C4.30375 4.25244 3.47175 4.52978 3.08656 5.2077L0.205378 10.1997C-0.179808 10.8776 -0.0103261 11.725 0.60597 12.2027L3.47175 14.3751C3.4075 15.067 3.4075 15.7633 3.47175 16.4551L0.60597 18.6276C-0.0103261 19.0898 -0.179808 19.9526 0.205378 20.6305L3.08656 25.6071C3.47175 26.285 4.30375 26.5624 5.01249 26.2542L8.32508 24.8521C8.89516 25.2527 9.49605 25.6071 10.1278 25.8998L10.5746 29.459C10.667 30.2293 11.3295 30.8148 12.0999 30.8148H17.8469C18.6172 30.8148 19.2798 30.2293 19.3722 29.459L19.819 25.8998C20.4507 25.6071 21.0516 25.2527 21.6217 24.8521L24.9343 26.2542C25.643 26.5624 26.475 26.285 26.8602 25.6071L29.7414 20.6305C30.1266 19.9526 29.9571 19.1052 29.3408 18.6276L26.475 16.4551C26.5212 16.1007 26.5366 15.7618 26.5366 15.4074ZM15.0427 20.8C12.0691 20.8 9.65012 18.381 9.65012 15.4074C9.65012 12.4338 12.0691 10.0148 15.0427 10.0148C18.0163 10.0148 20.4353 12.4338 20.4353 15.4074C20.4353 18.381 18.0163 20.8 15.0427 20.8Z" fill="#1A2126"/>
</svg>
