<svg width="37" height="37" viewBox="0 0 37 37" fill="none" xmlns="http://www.w3.org/2000/svg">
<path d="M30.0445 18.4894C30.0445 18.1351 30.029 17.7961 29.9982 17.4417L32.864 15.2693C33.4803 14.8071 33.6498 13.9443 33.2646 13.2663L30.3834 8.28973C30.1987 7.96338 29.8999 7.7168 29.5444 7.59736C29.1889 7.47791 28.8018 7.49404 28.4575 7.64262L25.1449 9.0447C24.5748 8.6441 23.9739 8.28973 23.3422 7.99699L22.8954 4.43788C22.803 3.66751 22.1405 3.08203 21.3701 3.08203H15.6231C14.8373 3.08203 14.1748 3.66751 14.0824 4.43788L13.6356 7.99699C13.0039 8.28973 12.403 8.6441 11.8329 9.0447L8.5203 7.64262C7.81156 7.33448 6.97956 7.61181 6.59438 8.28973L3.71319 13.2817C3.328 13.9597 3.49749 14.8071 4.11378 15.2847L6.97956 17.4571C6.91531 18.149 6.91531 18.8453 6.97956 19.5371L4.11378 21.7096C3.49749 22.1718 3.328 23.0346 3.71319 23.7125L6.59438 28.6891C6.97956 29.3671 7.81156 29.6444 8.5203 29.3363L11.8329 27.9342C12.403 28.3348 13.0039 28.6891 13.6356 28.9819L14.0824 32.541C14.1748 33.3114 14.8373 33.8968 15.6077 33.8968H21.3547C22.125 33.8968 22.7876 33.3114 22.88 32.541L23.3268 28.9819C23.9585 28.6891 24.5594 28.3348 25.1295 27.9342L28.4421 29.3363C29.1508 29.6444 29.9828 29.3671 30.368 28.6891L33.2492 23.7125C33.6344 23.0346 33.4649 22.1872 32.8486 21.7096L29.9828 19.5371C30.029 19.1828 30.0445 18.8438 30.0445 18.4894ZM18.5505 23.882C15.5769 23.882 13.1579 21.4631 13.1579 18.4894C13.1579 15.5158 15.5769 13.0968 18.5505 13.0968C21.5242 13.0968 23.9431 15.5158 23.9431 18.4894C23.9431 21.4631 21.5242 23.882 18.5505 23.882Z" fill="white"/>
</svg>
