<svg width="46" height="46" viewBox="0 0 46 46" fill="none" xmlns="http://www.w3.org/2000/svg">
<path d="M22.767 0C25.7568 0 28.7173 0.588886 31.4796 1.73304C34.2418 2.87718 36.7516 4.55419 38.8657 6.6683C40.9798 8.78241 42.6568 11.2922 43.801 14.0544C44.9451 16.8167 45.534 19.7772 45.534 22.767V36.4272C45.534 38.8425 44.5745 41.1588 42.8667 42.8667C41.1588 44.5745 38.8425 45.534 36.4272 45.534H34.1505C33.5467 45.534 32.9676 45.2941 32.5406 44.8672C32.1137 44.4402 31.8738 43.8611 31.8738 43.2573V25.0437C31.8738 24.4399 32.1137 23.8608 32.5406 23.4338C32.9676 23.0069 33.5467 22.767 34.1505 22.767H40.9806C40.9806 17.9365 39.0617 13.3038 35.646 9.88804C32.2303 6.47233 27.5976 4.5534 22.767 4.5534C17.9365 4.5534 13.3038 6.47233 9.88804 9.88804C6.47233 13.3038 4.5534 17.9365 4.5534 22.767H11.3835C11.9873 22.767 12.5664 23.0069 12.9934 23.4338C13.4203 23.8608 13.6602 24.4399 13.6602 25.0437V43.2573C13.6602 43.8611 13.4203 44.4402 12.9934 44.8672C12.5664 45.2941 11.9873 45.534 11.3835 45.534H9.1068C6.69153 45.534 4.37518 44.5745 2.66732 42.8667C0.959464 41.1588 0 38.8425 0 36.4272V22.767C0 16.7288 2.39866 10.9379 6.6683 6.6683C10.9379 2.39866 16.7288 0 22.767 0ZM22.767 18.2136C23.3708 18.2136 23.9499 18.4535 24.3769 18.8804C24.8038 19.3074 25.0437 19.8865 25.0437 20.4903V43.2573C25.0437 43.8611 24.8038 44.4402 24.3769 44.8672C23.9499 45.2941 23.3708 45.534 22.767 45.534C22.1632 45.534 21.5841 45.2941 21.1571 44.8672C20.7302 44.4402 20.4903 43.8611 20.4903 43.2573V20.4903C20.4903 19.8865 20.7302 19.3074 21.1571 18.8804C21.5841 18.4535 22.1632 18.2136 22.767 18.2136Z" fill="#1A2126"/>
</svg>
