<svg width="47" height="52" viewBox="0 0 47 52" fill="none" xmlns="http://www.w3.org/2000/svg">
<path d="M14.4498 0C17.2391 0 19.5049 2.26575 19.5049 5.05507C19.5049 7.84438 17.2391 10.1101 14.4498 10.1101C11.6605 10.1101 9.39475 7.84438 9.39475 5.05507C9.39475 2.26575 11.6605 0 14.4498 0ZM8.6726 21.4208L6.63252 23.4609C6.0909 24.0025 5.78399 24.7337 5.78399 25.501V28.8861C5.78399 30.4839 4.49314 31.7747 2.89538 31.7747C1.29762 31.7747 0.0067699 30.4839 0.0067699 28.8861V25.501C0.0067699 23.1991 0.918487 20.9966 2.54333 19.3717L5.64858 16.2665C7.74283 14.1722 10.5773 12.9987 13.5291 12.9987C16.7878 12.9987 19.875 14.425 21.9963 16.8893L28.1888 24.1109C29.2269 25.3205 29.0824 27.1439 27.8728 28.182C26.6632 29.2201 24.8398 29.0757 23.8017 27.8661L18.7737 21.9986V32.7045L21.888 35.3764C23.4857 36.7485 24.5329 38.6442 24.8308 40.7294L25.9681 48.6821C26.1938 50.2618 25.0925 51.7242 23.5128 51.9498C21.9331 52.1755 20.4708 51.0742 20.2451 49.4945L19.1077 41.5418C19.0084 40.8467 18.6564 40.2149 18.1238 39.7545L11.6786 34.23C9.75583 32.5871 8.65454 30.1769 8.65454 27.6494V21.3938L8.6726 21.4208ZM8.68162 36.3874C8.89827 36.5951 9.11491 36.8027 9.34961 37.0013L13.502 40.5579L13.3034 41.2439C12.8972 42.6611 12.1389 43.952 11.1008 44.9901L4.93546 51.1555C3.8071 52.2838 1.97464 52.2838 0.846272 51.1555C-0.282091 50.0271 -0.282091 48.1946 0.846272 47.0663L7.01165 40.9009C7.35467 40.5579 7.60742 40.1246 7.74283 39.6552L8.68162 36.3784V36.3874ZM29.7594 30.7727C30.7163 30.0506 32.0703 30.2492 32.7925 31.206L45.7912 48.5377C46.5134 49.4945 46.3148 50.8485 45.3579 51.5707C44.4011 52.2928 43.047 52.0943 42.3249 51.1374L29.3262 33.8058C28.604 32.8489 28.8026 31.4949 29.7594 30.7727Z" fill="#1A2126"/>
</svg>
