<svg width="53" height="60" viewBox="0 0 53 60" fill="none" xmlns="http://www.w3.org/2000/svg">
<path d="M16.396 0C19.5609 0 22.1319 2.57091 22.1319 5.7359C22.1319 8.90088 19.5609 11.4718 16.396 11.4718C13.231 11.4718 10.6601 8.90088 10.6601 5.7359C10.6601 2.57091 13.231 0 16.396 0ZM9.84065 24.3059L7.5258 26.6207C6.91124 27.2353 6.56299 28.0649 6.56299 28.9356V32.7766C6.56299 34.5895 5.09829 36.0542 3.28534 36.0542C1.47238 36.0542 0.00768169 34.5895 0.00768169 32.7766V28.9356C0.00768169 26.3237 1.04219 23.8245 2.88587 21.9808L6.40935 18.4573C8.78565 16.081 12.0019 14.7494 15.3512 14.7494C19.0488 14.7494 22.5518 16.3678 24.9588 19.164L31.9853 27.3582C33.1632 28.7307 32.9993 30.7997 31.6268 31.9776C30.2543 33.1555 28.1853 32.9916 27.0074 31.6191L21.3022 24.9614V37.1092L24.8359 40.141C26.6489 41.6979 27.837 43.8489 28.175 46.2149L29.4656 55.2387C29.7217 57.0312 28.4721 58.6905 26.6796 58.9466C24.8871 59.2026 23.2278 57.953 22.9718 56.1606L21.6812 47.1368C21.5685 46.3481 21.169 45.6311 20.5647 45.1087L13.2515 38.8402C11.0698 36.9761 9.82016 34.2413 9.82016 31.3733V24.2751L9.84065 24.3059ZM9.85089 41.2882C10.0967 41.5238 10.3425 41.7594 10.6088 41.9847L15.3205 46.0203L15.0951 46.7988C14.6342 48.4069 13.7738 49.8716 12.5959 51.0495L5.60018 58.0452C4.31985 59.3256 2.24058 59.3256 0.960251 58.0452C-0.320084 56.7649 -0.320084 54.6856 0.960251 53.4053L7.956 46.4096C8.34522 46.0203 8.63201 45.5287 8.78565 44.9961L9.85089 41.278V41.2882ZM33.7675 34.9173C34.8533 34.0979 36.3897 34.3232 37.2091 35.4089L51.9585 55.0749C52.7779 56.1606 52.5526 57.697 51.4669 58.5164C50.3812 59.3358 48.8447 59.1105 48.0253 58.0247L33.2759 38.3588C32.4565 37.2731 32.6818 35.7367 33.7675 34.9173Z" fill="white"/>
</svg>
