<svg width="55" height="55" viewBox="0 0 55 55" fill="none" xmlns="http://www.w3.org/2000/svg">
<path fill-rule="evenodd" clip-rule="evenodd" d="M0 2.73157C0 2.00711 0.287789 1.31233 0.800058 0.800058C1.31233 0.287789 2.00711 6.22757e-08 2.73157 6.22757e-08H5.91385C7.19328 -0.000193035 8.4322 0.448672 9.4146 1.26834C10.397 2.088 11.0606 3.22646 11.2896 4.48524L12.4614 10.9263H35.9857C38.0301 10.9267 40.0006 11.6913 41.5102 13.0701C43.0198 14.4488 43.9595 16.342 44.1449 18.378L45.2484 30.5253C45.3868 30.62 45.5161 30.7274 45.6363 30.8476L50.2991 35.5104H51.8998C52.6243 35.5104 53.3191 35.7982 53.8313 36.3105C54.3436 36.8227 54.6314 37.5175 54.6314 38.242C54.6314 38.9664 54.3436 39.6612 53.8313 40.1735C53.3191 40.6857 52.6243 40.9735 51.8998 40.9735H49.1682C48.4438 40.9734 47.7492 40.6855 47.237 40.1732L46.016 38.9522L46.2427 41.4598C47.6989 42.0426 48.9101 43.1089 49.6727 44.4795C50.4353 45.8502 50.7028 47.4415 50.4303 48.9862C50.1578 50.5308 49.3619 51.9346 48.1763 52.9615C46.9907 53.9884 45.4877 54.5759 43.92 54.6253C42.3523 54.6746 40.8154 54.1828 39.5676 53.2324C38.3198 52.2821 37.4372 50.9311 37.0681 49.4067C36.699 47.8822 36.8659 46.2772 37.5408 44.8613C38.2157 43.4454 39.3575 42.3051 40.7741 41.6318L40.2169 35.5104H32.5521C33.0585 38.5093 32.7205 41.59 31.5758 44.4077C30.4312 47.2255 28.525 49.6691 26.0707 51.4653C23.6164 53.2615 20.7107 54.3393 17.6787 54.5781C14.6467 54.817 11.6081 54.2075 8.90275 52.8178C6.19744 51.4281 3.93217 49.3131 2.36039 46.7094C0.788616 44.1056 -0.0276587 41.1159 0.00289809 38.0747C0.0334549 35.0335 0.909638 32.0607 2.53341 29.4891C4.15719 26.9175 6.4645 24.8484 9.19719 23.5133L5.91385 5.46314H2.73157C2.00711 5.46314 1.31233 5.17535 0.800058 4.66308C0.287789 4.15081 0 3.45603 0 2.73157ZM16.3894 27.3157C13.5514 27.4054 10.8596 28.5959 8.88384 30.6352C6.90804 32.6745 5.80324 35.4025 5.80324 38.242C5.80324 41.0814 6.90804 43.8094 8.88384 45.8487C10.8596 47.888 13.5514 49.0785 16.3894 49.1682C19.2872 49.1682 22.0664 48.0171 24.1155 45.968C26.1645 43.9189 27.3157 41.1398 27.3157 38.242C27.3157 35.3441 26.1645 32.565 24.1155 30.5159C22.0664 28.4668 19.2872 27.3157 16.3894 27.3157ZM43.7051 46.4367C43.3429 46.4367 42.9955 46.5806 42.7393 46.8367C42.4832 47.0928 42.3393 47.4402 42.3393 47.8025C42.3393 48.1647 42.4832 48.5121 42.7393 48.7682C42.9955 49.0243 43.3429 49.1682 43.7051 49.1682C44.0673 49.1682 44.4147 49.0243 44.6709 48.7682C44.927 48.5121 45.0709 48.1647 45.0709 47.8025C45.0709 47.4402 44.927 47.0928 44.6709 46.8367C44.4147 46.5806 44.0673 46.4367 43.7051 46.4367Z" fill="#1A2126"/>
</svg>
