<svg width="49" height="53" viewBox="0 0 49 53" fill="none" xmlns="http://www.w3.org/2000/svg">
<path fill-rule="evenodd" clip-rule="evenodd" d="M0 2.40734C0 1.76887 0.25363 1.15656 0.705094 0.705094C1.15656 0.25363 1.76887 5.48837e-08 2.40734 5.48837e-08H5.21189C6.33946 -0.000170123 7.43133 0.395416 8.29712 1.11779C9.16291 1.84016 9.7477 2.84349 9.94954 3.95285L10.9823 9.62936H31.7143C33.5161 9.62975 35.2526 10.3036 36.5831 11.5187C37.9135 12.7337 38.7417 14.4022 38.905 16.1966L39.8776 26.902C39.9996 26.9855 40.1135 27.0802 40.2194 27.1861L44.3288 31.2954H45.7395C46.3779 31.2954 46.9903 31.5491 47.4417 32.0005C47.8932 32.452 48.1468 33.0643 48.1468 33.7028C48.1468 34.3412 47.8932 34.9536 47.4417 35.405C46.9903 35.8565 46.3779 36.1101 45.7395 36.1101H43.3321C42.6937 36.11 42.0815 35.8563 41.6301 35.4048L40.5541 34.3287L40.7539 36.5386C42.0372 37.0523 43.1046 37.992 43.7767 39.2C44.4488 40.4079 44.6846 41.8104 44.4444 43.1717C44.2042 44.533 43.5028 45.7701 42.4579 46.6752C41.4131 47.5802 40.0885 48.098 38.7069 48.1414C37.3252 48.1849 35.9707 47.7515 34.871 46.9139C33.7714 46.0764 32.9935 44.8858 32.6682 43.5423C32.3429 42.1988 32.4901 40.7842 33.0849 39.5364C33.6797 38.2886 34.6859 37.2836 35.9344 36.6903L35.4433 31.2954H28.6883C29.1346 33.9384 28.8367 36.6534 27.8279 39.1367C26.8191 41.62 25.1392 43.7736 22.9762 45.3565C20.8132 46.9395 18.2524 47.8894 15.5803 48.0999C12.9082 48.3104 10.2302 47.7732 7.84603 46.5485C5.46182 45.3238 3.46543 43.4598 2.08022 41.1651C0.69501 38.8704 -0.0243757 36.2356 0.0025541 33.5553C0.0294839 30.8751 0.801667 28.2552 2.23271 25.9888C3.66374 23.7225 5.69719 21.899 8.10552 20.7224L5.21189 4.81468H2.40734C1.76887 4.81468 1.15656 4.56105 0.705094 4.10959C0.25363 3.65812 0 3.04581 0 2.40734ZM14.444 24.0734C11.9429 24.1525 9.57064 25.2017 7.82936 26.9989C6.08808 28.7961 5.11441 31.2004 5.11441 33.7028C5.11441 36.2052 6.08808 38.6094 7.82936 40.4066C9.57064 42.2039 11.9429 43.253 14.444 43.3321C16.9979 43.3321 19.4472 42.3176 21.253 40.5118C23.0589 38.7059 24.0734 36.2566 24.0734 33.7028C24.0734 31.1489 23.0589 28.6996 21.253 26.8938C19.4472 25.0879 16.9979 24.0734 14.444 24.0734ZM38.5175 40.9248C38.1982 40.9248 37.8921 41.0516 37.6663 41.2773C37.4406 41.5031 37.3138 41.8092 37.3138 42.1285C37.3138 42.4477 37.4406 42.7539 37.6663 42.9796C37.8921 43.2053 38.1982 43.3321 38.5175 43.3321C38.8367 43.3321 39.1428 43.2053 39.3686 42.9796C39.5943 42.7539 39.7211 42.4477 39.7211 42.1285C39.7211 41.8092 39.5943 41.5031 39.3686 41.2773C39.1428 41.0516 38.8367 40.9248 38.5175 40.9248Z" fill="white"/>
</svg>
